<?xml version="1.0" encoding="utf-8"?>
<!-- Generator: Adobe Illustrator 19.1.0, SVG Export Plug-In . SVG Version: 6.00 Build 0)  -->
<svg version="1.1" id="Layer_1" xmlns="http://www.w3.org/2000/svg" xmlns:xlink="http://www.w3.org/1999/xlink" x="0px" y="0px"
	 viewBox="0 0 600 100" style="enable-background:new 0 0 600 100;" xml:space="preserve">
<style type="text/css">
	.st0{fill:none;}
	.st1{fill:#FFFFFF;}
</style>
<g>
	<rect class="st0" width="100" height="100"/>
	<rect x="100" class="st0" width="100" height="100"/>
	<rect x="200" class="st0" width="100" height="100"/>
	<rect x="300" class="st0" width="100" height="100"/>
	<rect x="400" class="st0" width="100" height="100"/>
	<rect x="500" class="st0" width="100" height="100"/>
	<g id="clock_3_">
		<g>
			<g>
				<path class="st1" d="M150,20c-16.4,0-30,13.6-30,30s13.6,30,30,30s30-13.6,30-30S166.4,20,150,20z M150,76
					c-14.4,0-26-11.6-26-26s11.6-26,26-26c14.4,0,26,11.6,26,26S164.4,76,150,76z M152,31.2h-4v20.4l12.8,11.2l2.4-3.2L152,50V31.2z
					"/>
			</g>
		</g>
	</g>
	<path class="st1" d="M58.3,78.6c-1.9,1.9-5.1,1.9-7.1,0L23.8,52.6c-1.5-1.5-3.4-4.1-3.6-6.2c-0.4-5.6-0.2-16.5,0-22.4
		c0-2.1,1.9-3.9,3.9-3.9c7.3-0.2,23.1-0.4,24.4,1.1l30.6,27.4c1.9,1.9,0.2,7-1.7,8.8L58.3,78.6z M34.3,28.4c-1.7-1.7-4.3-1.7-6,0
		c-1.7,1.7-1.7,4.3,0,6c1.7,1.7,4.3,1.7,6,0C35.8,32.7,35.8,30.1,34.3,28.4z"/>
	<g>
		<path class="st1" d="M257.8,80c-0.9,0-1.9-0.5-2.4-1.4l-15.6-27.3c-0.5-0.8-0.5-1.9,0-2.7l15.6-27.3c0.7-1.3,2.4-1.8,3.7-1
			c1.3,0.7,1.8,2.4,1,3.7L245.3,50l14.8,25.9c0.7,1.3,0.3,3-1,3.7C258.7,79.9,258.3,80,257.8,80z"/>
	</g>
	<g>
		<g>
			<path class="st1" d="M372.3,26.8H368V29c0,2.7-2.2,4.9-4.9,4.9c-2.7,0-4.9-2.2-4.9-4.9v-2.2h-16.7V29c0,2.7-2.2,4.9-4.9,4.9
				c-2.7,0-4.9-2.2-4.9-4.9v-2.2h-4.3c-3,0-5.5,2.5-5.5,5.5v42.2c0,3,2.5,5.5,5.5,5.5h44.6c3,0,5.5-2.5,5.5-5.5V32.3
				C377.8,29.3,375.3,26.8,372.3,26.8z M373.3,75.3h-46.6V38h46.6V75.3z"/>
		</g>
		<g>
			<rect x="345.1" y="64.7" class="st1" width="9.8" height="6.7"/>
		</g>
		<g>
			<rect x="331" y="64.7" class="st1" width="9.8" height="6.7"/>
		</g>
		<g>
			<rect x="359.3" y="54.8" class="st1" width="9.8" height="6.7"/>
		</g>
		<g>
			<rect x="345.1" y="54.8" class="st1" width="9.8" height="6.7"/>
		</g>
		<g>
			<rect x="331" y="54.8" class="st1" width="9.8" height="6.7"/>
		</g>
		<g>
			<rect x="359.3" y="44.9" class="st1" width="9.8" height="6.7"/>
		</g>
		<g>
			<rect x="345.1" y="44.9" class="st1" width="9.8" height="6.7"/>
		</g>
		<g>
			<rect x="331" y="44.9" class="st1" width="9.8" height="6.7"/>
		</g>
		<g>
			<path class="st1" d="M336.8,32.4c1.9,0,3.4-1.5,3.4-3.4v-5.6c0-1.9-1.5-3.4-3.4-3.4c-1.9,0-3.4,1.5-3.4,3.4V29
				C333.4,30.9,334.9,32.4,336.8,32.4z"/>
		</g>
		<g>
			<path class="st1" d="M363.2,32.4c1.9,0,3.4-1.5,3.4-3.4v-5.6c0-1.9-1.5-3.4-3.4-3.4c-1.9,0-3.4,1.5-3.4,3.4V29
				C359.8,30.9,361.3,32.4,363.2,32.4z"/>
		</g>
	</g>
	<g>
		<path class="st1" d="M450,20c-10.3,0-18.6,8.3-18.6,18.6C431.4,53.8,450,80,450,80s18.6-26.5,18.6-41.4
			C468.6,28.3,460.3,20,450,20z M449.9,50.6c-6.7,0-12.1-5.4-12.1-12.1c0-6.7,5.4-12.1,12.1-12.1S462,31.8,462,38.5
			C462,45.1,456.6,50.6,449.9,50.6z"/>
	</g>
	<g>
		<path class="st1" d="M550,80c-16.5,0-30-13.5-30-30s13.5-30,30-30s30,13.5,30,30S566.5,80,550,80z M550,22.4
			c-15.2,0-27.6,12.4-27.6,27.6s12.4,27.6,27.6,27.6s27.6-12.4,27.6-27.6S565.2,22.4,550,22.4z"/>
		<rect x="549" y="23.7" class="st1" width="2" height="5.7"/>
		<rect x="523.7" y="49" class="st1" width="5.7" height="2"/>
		<rect x="570.6" y="49" class="st1" width="5.7" height="2"/>
		<rect x="549" y="70.7" class="st1" width="2" height="5.7"/>
		<path class="st1" d="M563.2,40.4c0.6-0.6,0.6-1.6,0-2.3l0,0c-0.6-0.6-1.6-0.6-2.3,0l-9.7,9.7c0,0,0,0,0,0
			c-0.4-0.1-0.8-0.2-1.2-0.2c-0.5,0-0.9,0.1-1.3,0.3l-13.4-13.4c-0.6-0.6-1.6-0.6-2.3,0l0,0c-0.6,0.6-0.6,1.6,0,2.3l13.6,13.6
			c-0.1,0.2-0.1,0.5-0.1,0.8c0,1.9,1.6,3.5,3.5,3.5s3.5-1.6,3.5-3.5c0-0.3,0-0.6-0.1-0.9c0,0,0.1-0.1,0.1-0.1L563.2,40.4z"/>
	</g>
</g>
</svg>
