<?xml version="1.0" encoding="utf-8"?>
<!-- Generator: Adobe Illustrator 19.1.0, SVG Export Plug-In . SVG Version: 6.00 Build 0)  -->
<svg version="1.1" id="Layer_1" xmlns="http://www.w3.org/2000/svg" xmlns:xlink="http://www.w3.org/1999/xlink" x="0px" y="0px"
	 viewBox="-179 231 600 100" style="enable-background:new -179 231 600 100;" xml:space="preserve">
<style type="text/css">
	.st0{fill:none;}
	.st1{fill:#FFFFFF;}
	.st2{fill:#2DBDB6;}
</style>
<rect x="-179" y="231" class="st0" width="100" height="100"/>
<rect x="-79" y="231" class="st0" width="100" height="100"/>
<rect x="21" y="231" class="st0" width="100" height="100"/>
<rect x="121" y="231" class="st0" width="100" height="100"/>
<rect x="221" y="231" class="st0" width="100" height="100"/>
<rect x="321" y="231" class="st0" width="100" height="100"/>
<g id="clock_3_">
	<g>
		<g>
			<path class="st1" d="M-29,251c-16.4,0-30,13.6-30,30s13.6,30,30,30s30-13.6,30-30S-12.6,251-29,251z M-29,307
				c-14.4,0-26-11.6-26-26s11.6-26,26-26s26,11.6,26,26S-14.6,307-29,307z M-27,262.2h-4v20.4l12.8,11.2l2.4-3.2L-27,281V262.2z"/>
		</g>
	</g>
</g>
<path class="st2" d="M-120.7,309.6c-1.9,1.9-5.1,1.9-7.1,0l-27.4-26c-1.5-1.5-3.4-4.1-3.6-6.2c-0.4-5.6-0.2-16.5,0-22.4
	c0-2.1,1.9-3.9,3.9-3.9c7.3-0.2,23.1-0.4,24.4,1.1l30.6,27.4c1.9,1.9,0.2,7-1.7,8.8L-120.7,309.6z M-144.7,259.4
	c-1.7-1.7-4.3-1.7-6,0c-1.7,1.7-1.7,4.3,0,6c1.7,1.7,4.3,1.7,6,0C-143.2,263.7-143.2,261.1-144.7,259.4z"/>
<g>
	<path class="st2" d="M78.8,311c-0.9,0-1.9-0.5-2.4-1.4l-15.6-27.3c-0.5-0.8-0.5-1.9,0-2.7l15.6-27.3c0.7-1.3,2.4-1.8,3.7-1
		c1.3,0.7,1.8,2.4,1,3.7l-14.8,26l14.8,25.9c0.7,1.3,0.3,3-1,3.7C79.7,310.9,79.3,311,78.8,311z"/>
</g>
<g>
	<g>
		<path class="st1" d="M193.3,257.8H189v2.2c0,2.7-2.2,4.9-4.9,4.9c-2.7,0-4.9-2.2-4.9-4.9v-2.2h-16.7v2.2c0,2.7-2.2,4.9-4.9,4.9
			c-2.7,0-4.9-2.2-4.9-4.9v-2.2h-4.3c-3,0-5.5,2.5-5.5,5.5v42.2c0,3,2.5,5.5,5.5,5.5H193c3,0,5.5-2.5,5.5-5.5v-42.2
			C198.8,260.3,196.3,257.8,193.3,257.8z M194.3,306.3h-46.6V269h46.6V306.3z"/>
	</g>
	<g>
		<rect x="166.1" y="295.7" class="st1" width="9.8" height="6.7"/>
	</g>
	<g>
		<rect x="152" y="295.7" class="st1" width="9.8" height="6.7"/>
	</g>
	<g>
		<rect x="180.3" y="285.8" class="st1" width="9.8" height="6.7"/>
	</g>
	<g>
		<rect x="166.1" y="285.8" class="st1" width="9.8" height="6.7"/>
	</g>
	<g>
		<rect x="152" y="285.8" class="st1" width="9.8" height="6.7"/>
	</g>
	<g>
		<rect x="180.3" y="275.9" class="st1" width="9.8" height="6.7"/>
	</g>
	<g>
		<rect x="166.1" y="275.9" class="st1" width="9.8" height="6.7"/>
	</g>
	<g>
		<rect x="152" y="275.9" class="st1" width="9.8" height="6.7"/>
	</g>
	<g>
		<path class="st1" d="M157.8,263.4c1.9,0,3.4-1.5,3.4-3.4v-5.6c0-1.9-1.5-3.4-3.4-3.4s-3.4,1.5-3.4,3.4v5.6
			C154.4,261.9,155.9,263.4,157.8,263.4z"/>
	</g>
	<g>
		<path class="st1" d="M184.2,263.4c1.9,0,3.4-1.5,3.4-3.4v-5.6c0-1.9-1.5-3.4-3.4-3.4s-3.4,1.5-3.4,3.4v5.6
			C180.8,261.9,182.3,263.4,184.2,263.4z"/>
	</g>
</g>
<g>
	<path class="st1" d="M271,251c-10.3,0-18.6,8.3-18.6,18.6c0,15.2,18.6,41.4,18.6,41.4s18.6-26.5,18.6-41.4
		C289.6,259.3,281.3,251,271,251z M270.9,281.6c-6.7,0-12.1-5.4-12.1-12.1s5.4-12.1,12.1-12.1s12.1,5.4,12.1,12.1
		C283,276.1,277.6,281.6,270.9,281.6z"/>
</g>
<g>
	<path class="st1" d="M371,311c-16.5,0-30-13.5-30-30s13.5-30,30-30s30,13.5,30,30S387.5,311,371,311z M371,253.4
		c-15.2,0-27.6,12.4-27.6,27.6s12.4,27.6,27.6,27.6s27.6-12.4,27.6-27.6S386.2,253.4,371,253.4z"/>
	<rect x="370" y="254.7" class="st1" width="2" height="5.7"/>
	<rect x="344.7" y="280" class="st1" width="5.7" height="2"/>
	<rect x="391.6" y="280" class="st1" width="5.7" height="2"/>
	<rect x="370" y="301.7" class="st1" width="2" height="5.7"/>
	<path class="st1" d="M384.2,271.4c0.6-0.6,0.6-1.6,0-2.3l0,0c-0.6-0.6-1.6-0.6-2.3,0l-9.7,9.7l0,0c-0.4-0.1-0.8-0.2-1.2-0.2
		c-0.5,0-0.9,0.1-1.3,0.3l-13.4-13.4c-0.6-0.6-1.6-0.6-2.3,0l0,0c-0.6,0.6-0.6,1.6,0,2.3l13.6,13.6c-0.1,0.2-0.1,0.5-0.1,0.8
		c0,1.9,1.6,3.5,3.5,3.5s3.5-1.6,3.5-3.5c0-0.3,0-0.6-0.1-0.9l0.1-0.1L384.2,271.4z"/>
</g>
</svg>
