<?xml version="1.0" encoding="utf-8"?>
<!-- Generator: Adobe Illustrator 19.1.0, SVG Export Plug-In . SVG Version: 6.00 Build 0)  -->
<svg version="1.1" xmlns="http://www.w3.org/2000/svg" xmlns:xlink="http://www.w3.org/1999/xlink" x="0px" y="0px"
	 viewBox="-179 231 600 100" style="enable-background:new -179 231 600 100;" xml:space="preserve">
<style type="text/css">
	.st0{fill:#FFFFFF;}
</style>
<g id="time">
	<g id="clock_3_">
		<g>
			<g>
				<path class="st0" d="M-29,82.8c-16.4,0-30,13.6-30,30s13.6,30,30,30s30-13.6,30-30S-12.6,82.8-29,82.8z M-29,138.8
					c-14.4,0-26-11.6-26-26s11.6-26,26-26s26,11.6,26,26S-14.6,138.8-29,138.8z M-27,94h-4v20.4l12.8,11.2l2.4-3.2l-11.2-9.6V94z"/>
			</g>
		</g>
	</g>
</g>
<g id="ticket">
	<path class="st0" d="M-120.7,141.4c-1.9,1.9-5.1,1.9-7.1,0l-27.4-26c-1.5-1.5-3.4-4.1-3.6-6.2c-0.4-5.6-0.2-16.5,0-22.4
		c0-2.1,1.9-3.9,3.9-3.9c7.3-0.2,23.1-0.4,24.4,1.1l30.6,27.4c1.9,1.9,0.2,7-1.7,8.8L-120.7,141.4z M-144.7,91.2
		c-1.7-1.7-4.3-1.7-6,0c-1.7,1.7-1.7,4.3,0,6s4.3,1.7,6,0C-143.2,95.5-143.2,92.9-144.7,91.2z"/>
</g>
<g id="arrow">
	<g>
		<path class="st0" d="M78.8,142.8c-0.9,0-1.9-0.5-2.4-1.4l-15.6-27.3c-0.5-0.8-0.5-1.9,0-2.7l15.6-27.3c0.7-1.3,2.4-1.8,3.7-1
			c1.3,0.7,1.8,2.4,1,3.7l-14.8,26l14.8,25.9c0.7,1.3,0.3,3-1,3.7C79.7,142.7,79.3,142.8,78.8,142.8z"/>
	</g>
</g>
<g id="when_1_">
	<g>
		<g>
			<path class="st0" d="M193.3,89.6H189v2.2c0,2.7-2.2,4.9-4.9,4.9c-2.7,0-4.9-2.2-4.9-4.9v-2.2h-16.7v2.2c0,2.7-2.2,4.9-4.9,4.9
				c-2.7,0-4.9-2.2-4.9-4.9v-2.2h-4.3c-3,0-5.5,2.5-5.5,5.5v42.2c0,3,2.5,5.5,5.5,5.5H193c3,0,5.5-2.5,5.5-5.5V95.1
				C198.8,92.1,196.3,89.6,193.3,89.6z M194.3,138.1h-46.6v-37.3h46.6V138.1z"/>
		</g>
		<g>
			<rect x="166.1" y="127.5" class="st0" width="9.8" height="6.7"/>
		</g>
		<g>
			<rect x="152" y="127.5" class="st0" width="9.8" height="6.7"/>
		</g>
		<g>
			<rect x="180.3" y="117.6" class="st0" width="9.8" height="6.7"/>
		</g>
		<g>
			<rect x="166.1" y="117.6" class="st0" width="9.8" height="6.7"/>
		</g>
		<g>
			<rect x="152" y="117.6" class="st0" width="9.8" height="6.7"/>
		</g>
		<g>
			<rect x="180.3" y="107.7" class="st0" width="9.8" height="6.7"/>
		</g>
		<g>
			<rect x="166.1" y="107.7" class="st0" width="9.8" height="6.7"/>
		</g>
		<g>
			<rect x="152" y="107.7" class="st0" width="9.8" height="6.7"/>
		</g>
		<g>
			<path class="st0" d="M157.8,95.2c1.9,0,3.4-1.5,3.4-3.4v-5.6c0-1.9-1.5-3.4-3.4-3.4s-3.4,1.5-3.4,3.4v5.6
				C154.4,93.7,155.9,95.2,157.8,95.2z"/>
		</g>
		<g>
			<path class="st0" d="M184.2,95.2c1.9,0,3.4-1.5,3.4-3.4v-5.6c0-1.9-1.5-3.4-3.4-3.4s-3.4,1.5-3.4,3.4v5.6
				C180.8,93.7,182.3,95.2,184.2,95.2z"/>
		</g>
	</g>
</g>
<g id="where">
	<g>
		<path class="st0" d="M271,82.8c-10.3,0-18.6,8.3-18.6,18.6c0,15.2,18.6,41.4,18.6,41.4s18.6-26.5,18.6-41.4
			C289.6,91.1,281.3,82.8,271,82.8z M270.9,113.4c-6.7,0-12.1-5.4-12.1-12.1s5.4-12.1,12.1-12.1s12.1,5.4,12.1,12.1
			C283,107.9,277.6,113.4,270.9,113.4z"/>
	</g>
</g>
<g id="when">
	<g>
		<path class="st0" d="M371,142.8c-16.5,0-30-13.5-30-30s13.5-30,30-30s30,13.5,30,30S387.5,142.8,371,142.8z M371,85.2
			c-15.2,0-27.6,12.4-27.6,27.6s12.4,27.6,27.6,27.6s27.6-12.4,27.6-27.6S386.2,85.2,371,85.2z"/>
		<rect x="370" y="86.5" class="st0" width="2" height="5.7"/>
		<rect x="344.7" y="111.8" class="st0" width="5.7" height="2"/>
		<rect x="391.6" y="111.8" class="st0" width="5.7" height="2"/>
		<rect x="370" y="133.5" class="st0" width="2" height="5.7"/>
		<path class="st0" d="M384.2,103.2c0.6-0.6,0.6-1.6,0-2.3l0,0c-0.6-0.6-1.6-0.6-2.3,0l-9.7,9.7l0,0c-0.4-0.1-0.8-0.2-1.2-0.2
			c-0.5,0-0.9,0.1-1.3,0.3l-13.4-13.4c-0.6-0.6-1.6-0.6-2.3,0l0,0c-0.6,0.6-0.6,1.6,0,2.3l13.6,13.6c-0.1,0.2-0.1,0.5-0.1,0.8
			c0,1.9,1.6,3.5,3.5,3.5s3.5-1.6,3.5-3.5c0-0.3,0-0.6-0.1-0.9l0.1-0.1L384.2,103.2z"/>
	</g>
</g>
</svg>
