<?xml version="1.0" encoding="utf-8"?>
<!-- Generator: Adobe Illustrator 19.1.0, SVG Export Plug-In . SVG Version: 6.00 Build 0)  -->
<svg version="1.1" id="Layer_1" xmlns="http://www.w3.org/2000/svg" xmlns:xlink="http://www.w3.org/1999/xlink" x="0px" y="0px"
	 viewBox="-374.7 27.6 1008.5 502.4" style="enable-background:new -374.7 27.6 1008.5 502.4;" xml:space="preserve">
<style type="text/css">
	.st0{fill:#FFFFFF;}
</style>
<path class="st0" d="M-213.6,114.6l-50.2-86.9l-50.2,86.9h-60.9v301.4c0,37.3,8.3,65.7,26.2,85.3c17.9,19.4,45.8,29.1,84.6,28.8
	c37.8,0.2,66.1-9.4,84.1-28.8s27.2-47.7,27.2-85.3V114.6H-213.6z M-241.3,227.9V427c0,12.4-10,22.4-22.4,22.4h0
	c-12.4,0-22.4-10-22.4-22.4V227.9h-66l88.4-153.3l88.4,153.3H-241.3z M242.9,416.6c0-4.5,0-8.3-0.2-11.6c-0.2-3.3-0.5-6.8-0.9-10.6
	c-0.5-3.8-1.2-7.1-2.1-9.7c-0.9-2.6-2.1-5.2-3.5-8c-1.4-2.6-3.3-5-5.4-6.8c-2.4-1.9-5-3.5-7.8-5c-3.1-1.4-6.6-2.6-10.6-3.3
	c-4.3-0.7-8.7-1.2-13.7-1.2c-4,0-7.8,0.2-11.3,0.7c-3.3,0.5-7.3,1.7-11.6,3.5c-4.3,1.9-8,4.3-10.9,7.3c-3.1,3.1-5.4,7.6-7.6,13.2
	c-2.1,5.7-3.1,12.5-3.1,20.1v70.1c0,33.3,13,50.1,38.7,50.1c13.2,0,23.1-5.2,29.5-15.6l6.1,13.7h14.2v-94.5h-43.2v28.1h9.4v18.7
	c0,6.4-0.7,10.9-1.9,13.7c-1.2,2.8-3.5,4.3-7.1,4.3c-2.4,0-4-0.5-5.4-1.4c-1.4-0.9-2.4-2.4-3.1-4.3c-0.7-1.9-0.9-3.5-1.2-5.2
	c-0.2-1.4-0.2-3.5-0.2-5.9v-62.6c0-4,0-7.1,0-9c0.2-1.9,0.5-4,0.7-6.1c0.5-2.1,0.9-3.8,1.7-4.5c0.7-0.9,1.7-1.7,2.8-2.1
	c1.2-0.5,2.8-0.7,5-0.7c1.2,0,2.1,0.2,2.8,0.5c0.7,0.2,1.7,0.7,2.6,1.4c0.9,0.7,1.9,1.9,2.4,3.5c0.5,1.7,0.7,3.8,0.7,6.4v12.8H242.9
	z M342.8,379.8c-1.4-4.3-3.1-7.6-5.4-9.9c-2.4-2.4-5.4-4.5-9.4-5.9c-4-1.7-8.7-2.4-14.4-2.4h-55v162h36.1v-73.7c2.6,0,4.5,0,6.1,0.5
	c1.2,0.2,2.6,0.5,4,1.2c1.4,0.7,2.4,1.9,2.8,3.3c0.5,1.4,0.7,3.3,0.7,5.9v63.1h35c0.2-13.7,0.5-34.2,0.5-60.9c0-2.6-0.2-5-0.5-7.1
	c-0.2-2.1-0.9-4.5-1.9-6.8c-0.9-2.4-2.6-4.5-4.7-6.1c-2.1-1.7-5-2.6-8.3-3.3c3.3-1.2,6.1-2.6,8.5-4.5c2.4-1.9,4-4,5.2-5.9
	c0.9-1.9,1.9-4.5,2.6-7.3c0.7-2.8,1.2-5.4,1.2-7.3c0.2-2.1,0.2-4.5,0.2-7.6c0-5.9-0.2-10.9-0.7-14.9
	C344.9,388,344.2,383.8,342.8,379.8z M303.8,421.8h-9v-30.2h1.9c5.7,0,9.4,0.9,11.3,2.8c1.9,1.7,2.8,5.9,2.8,12.5
	C310.9,416.9,308.5,421.8,303.8,421.8z M371.3,361.6l-18.4,162h34.7l2.1-24.3H408l2.6,24.3H445l-17.9-162H371.3z M392.4,469.8
	l4.7-77.7h3.3l4.7,77.7H392.4z M534.8,371.8c-6.1-6.8-15.8-10.2-29.3-10.2h-49.4v161.8h48.2c14.2,0,24.3-3.8,30.7-11.8
	c6.4-7.8,9.4-19.8,9.4-36.1l-0.5-75.6C544,387.8,540.9,378.6,534.8,371.8z M508.3,485.1c0,5.9-3.3,8.7-10.2,8.7c-0.5,0-1.4,0-2.6,0
	s-1.9,0-2.4,0c-0.5,0-0.9,0-1.2,0V390.2c1.9,0,3.3-0.2,3.8,0c4.5,0,7.8,1.2,9.7,3.3c1.9,2.1,2.8,6.1,2.8,12V485.1z M596.2,455.1H630
	v-30.5h-33.8V393h35.2v-31.4h-71.6v162h73.9V492h-37.6V455.1z M274.5,267.4L274,164.1c-0.2-16.3-4.5-29.1-12.8-38.3
	c-8.5-9.2-21.7-13.9-39.9-13.9h-67.3v220.8v0.2h65.7c19.1,0,33.1-5.4,41.8-16.3C270.3,305.9,274.5,289.6,274.5,267.4z M225.6,280.8
	c0,7.8-4.5,11.8-13.9,11.8c-0.9,0-2.4-0.2-3.8-0.2c-1.4-0.2-2.6-0.2-3.1-0.2c-0.7,0-1.4,0.2-1.7,0.2V150.9c2.6-0.2,4.5-0.2,5.4-0.2
	c6.4,0,10.6,1.4,13.2,4.5c2.6,3.1,3.8,8.5,3.8,16.5V280.8z M336.4,299.5H361l3.5,33.3h47.2L387.4,112h-76.5l-25,220.8h47.5
	L336.4,299.5z M346.6,153.3h4.5l6.4,105.8h-17.5L346.6,153.3z M440.1,332.8H489V154.5H518V112H411.3H411v42.5h29.1V332.8z
	 M582.5,289.6v-50.3h46.1v-41.3h-46.1v-43.2h47.9V112h-97.5v220.8h100.8v-43.2H582.5z M84.2,138.4c-9.2-9.4-19.6-16.1-31.6-20.3
	c-12-4-26-6.1-41.8-6.1H-110v413.3h89.7V361.4h37.1c18.4,0,34-2.8,46.8-8.5c12.8-5.7,22.7-13.9,29.5-25.3
	c6.8-11.1,11.8-24.1,14.6-38.5c2.8-14.4,4.3-31.6,4.3-52c0-23.4-2.4-43.5-7.1-60S93.4,147.9,84.2,138.4z M21.1,256.7
	c-0.7,5.9-1.9,10.6-3.5,14.4c-1.7,3.5-3.3,6.6-5,8.7c-1.7,2.1-4.3,3.8-7.6,4.7c-3.3,0.9-6.1,1.7-8.7,1.9c-2.6,0.2-6.1,0.5-11.1,0.5
	H-20v-99.9h10.2c11.8,0,20.1,3.5,24.8,10.6s7.1,19.6,7.1,37.8C22,243.7,21.8,250.8,21.1,256.7z"/>
</svg>
