<?xml version="1.0" encoding="utf-8"?>
<!-- Generator: Adobe Illustrator 19.1.0, SVG Export Plug-In . SVG Version: 6.00 Build 0)  -->
<svg version="1.1" id="Layer_1" xmlns="http://www.w3.org/2000/svg" xmlns:xlink="http://www.w3.org/1999/xlink" x="0px" y="0px"
	 viewBox="0 0 427 211.6" style="enable-background:new 0 0 427 211.6;" xml:space="preserve">
<style type="text/css">
	.st0{fill:#FFFFFF;}
</style>
<g>
	<g>
		<path class="st0" d="M255.4,209l-2.6-5.8c-2.7,4.4-6.9,6.6-12.5,6.6c-10.9,0-16.4-7.1-16.4-21.2v-29.7c0-3.2,0.4-6.1,1.3-8.5
			c0.9-2.4,1.9-4.3,3.2-5.6c1.2-1.3,2.8-2.3,4.6-3.1c1.8-0.8,3.5-1.3,4.9-1.5c1.5-0.2,3.1-0.3,4.8-0.3c2.1,0,4,0.2,5.8,0.5
			c1.7,0.3,3.2,0.8,4.5,1.4c1.2,0.6,2.3,1.3,3.3,2.1c0.9,0.8,1.7,1.8,2.3,2.9c0.6,1.2,1.1,2.3,1.5,3.4c0.4,1.1,0.7,2.5,0.9,4.1
			c0.2,1.6,0.3,3.1,0.4,4.5c0.1,1.4,0.1,3,0.1,4.9H247v-5.4c0-1.1-0.1-2-0.3-2.7c-0.2-0.7-0.6-1.2-1-1.5c-0.4-0.3-0.8-0.5-1.1-0.6
			c-0.3-0.1-0.7-0.2-1.2-0.2c-0.9,0-1.6,0.1-2.1,0.3c-0.5,0.2-0.9,0.5-1.2,0.9c-0.3,0.3-0.5,1-0.7,1.9c-0.1,0.9-0.2,1.8-0.3,2.6
			c0,0.8,0,2.1,0,3.8v26.5c0,1,0,1.9,0.1,2.5c0.1,0.7,0.2,1.4,0.5,2.2c0.3,0.8,0.7,1.4,1.3,1.8c0.6,0.4,1.3,0.6,2.3,0.6
			c1.5,0,2.5-0.6,3-1.8c0.5-1.2,0.8-3.1,0.8-5.8v-7.9h-4V169h18.3v40H255.4z"/>
		<path class="st0" d="M283.4,177.8V209h-15.3v-68.6h23.3c2.4,0,4.4,0.3,6.1,1c1.7,0.6,3,1.5,4,2.5c1,1,1.7,2.4,2.3,4.2
			c0.6,1.7,0.9,3.5,1.1,5.2c0.2,1.7,0.3,3.8,0.3,6.3c0,1.3,0,2.3-0.1,3.2c0,0.8-0.2,1.9-0.5,3.1c-0.3,1.2-0.7,2.3-1.1,3.1
			c-0.5,0.8-1.2,1.7-2.2,2.5c-1,0.8-2.2,1.4-3.6,1.9c1.4,0.3,2.6,0.7,3.5,1.4c0.9,0.7,1.6,1.6,2,2.6c0.4,1,0.7,2,0.8,2.9
			c0.1,0.9,0.2,1.9,0.2,3c0,11.3-0.1,20-0.2,25.8h-14.8v-26.7c0-1.1-0.1-1.9-0.3-2.5s-0.6-1.1-1.2-1.4c-0.6-0.3-1.2-0.4-1.7-0.5
			C285.3,177.8,284.5,177.8,283.4,177.8z M283.5,153.1v12.8h3.8c2,0,3-2.1,3-6.3c0-2.8-0.4-4.6-1.2-5.3c-0.8-0.8-2.4-1.2-4.8-1.2
			H283.5z"/>
		<path class="st0" d="M339.5,140.4l7.6,68.6h-14.6l-1.1-10.3h-7.7l-0.9,10.3h-14.7l7.8-68.6H339.5z M328.2,153.3h-1.4l-2,32.9h5.4
			L328.2,153.3z"/>
		<path class="st0" d="M351.8,209v-68.6h20.9c5.7,0,9.8,1.4,12.4,4.3c2.6,2.9,3.9,6.8,3.9,11.9l0.2,32c0,6.9-1.3,12-4,15.3
			c-2.7,3.4-7,5-13,5H351.8z M367,152.5v43.9c0.1,0,0.3,0,0.5,0c0.2,0,0.5,0,1,0c0.5,0,0.9,0,1.1,0c2.9,0,4.3-1.2,4.3-3.7V159
			c0-2.5-0.4-4.2-1.2-5.1c-0.8-0.9-2.2-1.4-4.1-1.4C368.4,152.4,367.8,152.5,367,152.5z"/>
		<path class="st0" d="M395.7,209v-68.6H426v13.3h-14.9v13.4h14.3V180h-14.3v15.6H427V209H395.7z"/>
	</g>
	<g>
		<path class="st0" d="M223.9,128.2V34.7h28.5c7.7,0,13.3,2,16.9,5.9c3.5,3.9,5.3,9.3,5.4,16.2l0.2,43.7c0,9.4-1.8,16.3-5.5,20.9
			c-3.7,4.6-9.6,6.9-17.7,6.9H223.9z M244.7,51.2v59.9c0.1,0,0.4-0.1,0.7-0.1c0.2,0,0.7,0,1.3,0.1c0.6,0,1.2,0.1,1.6,0.1
			c4,0,5.9-1.7,5.9-5V60c0-3.4-0.5-5.7-1.6-7c-1.1-1.3-2.9-1.9-5.6-1.9C246.6,51.1,245.8,51.1,244.7,51.2z"/>
		<path class="st0" d="M322.7,34.7l10.3,93.5h-20l-1.5-14.1h-10.4l-1.3,14.1h-20.1l10.6-93.5H322.7z M307.3,52.2h-1.9l-2.8,44.8h7.4
			L307.3,52.2z"/>
		<path class="st0" d="M332.8,34.7H378v18h-12.3v75.5h-20.7V52.7h-12.3V34.7z"/>
		<path class="st0" d="M384.3,128.2V34.7h41.3v18.1h-20.3v18.3h19.5v17.5h-19.5v21.3H427v18.3H384.3z"/>
	</g>
	<path class="st0" d="M112.1,209.8V34.7h51.1c6.7,0,12.6,0.9,17.7,2.6c5.1,1.8,9.5,4.6,13.4,8.6c3.9,4,6.8,9.4,8.8,16.4
		c2,7,3,15.5,3,25.4c0,8.6-0.6,15.9-1.8,22c-1.2,6.1-3.3,11.6-6.2,16.3c-2.9,4.8-7.1,8.3-12.5,10.7c-5.4,2.4-12,3.6-19.8,3.6h-15.7
		v69.4H112.1z M150.2,66.5v42.3h2.2c2.1,0,3.6-0.1,4.7-0.2c1.1-0.1,2.3-0.4,3.7-0.8c1.4-0.4,2.5-1.1,3.2-2c0.7-0.9,1.4-2.2,2.1-3.7
		c0.7-1.6,1.2-3.6,1.5-6.1c0.3-2.5,0.4-5.5,0.4-9c0-7.7-1-13-3-16c-2-3-5.5-4.5-10.5-4.5H150.2z"/>
	<path class="st0" d="M66.6,35.8l-16-28.3L46.5,0l-4.1,7.5l-16,28.3H0v127.6c0,15.8,3.5,27.8,11.1,36.1c7.6,8.2,19.4,12.3,35.8,12.2
		c16,0.1,28-4,35.6-12.2c7.6-8.2,11.5-20.2,11.5-36.1V35.8H66.6z M57,83.8V160c0,0.1,0,0.4,0,0.8c0,1.6-0.5,2.9-0.6,3.7
		c0,0.9-0.4,2.1-0.5,3.8c-0.1,1.6-0.6,3-1,4c-0.4,1-1,2-1.7,3.1c-0.7,1.1-1.6,1.9-2.7,2.4c-1.1,0.5-2.5,0.8-4,0.8
		c-1.8,0-3.4-0.4-4.6-1.3c-1.2-0.8-2.2-1.8-2.8-2.9c-0.6-1.1-1.1-2.6-1.4-4.5c-0.3-1.9,0-3.4-0.1-4.5c0-1.1,0.4-2.6,0.4-4.5
		c0-0.4,0-0.6,0-0.8V83.8H9.1l37.5-64.9L84,83.8H57z"/>
</g>
</svg>
