<?xml version="1.0" encoding="utf-8"?>
<!-- Generator: Adobe Illustrator 19.1.0, SVG Export Plug-In . SVG Version: 6.00 Build 0)  -->
<svg version="1.1" id="Layer_1" xmlns="http://www.w3.org/2000/svg" xmlns:xlink="http://www.w3.org/1999/xlink" x="0px" y="0px"
	 viewBox="0 0 215.3 50" style="enable-background:new 0 0 215.3 50;" xml:space="preserve">
<style type="text/css">
	.st0{fill:#FFFFFF;}
	.st1{fill:#58595B;}
	.st2{fill:#231F20;}
	.st3{fill:#2DBDB6;}
	.st4{opacity:0.35;clip-path:url(#SVGID_2_);fill:#FFFFFF;}
	.st5{opacity:0.35;clip-path:url(#SVGID_4_);fill:#FFFFFF;}
	.st6{fill:none;stroke:#58595B;stroke-width:0.3747;stroke-miterlimit:10;}
</style>
<g>
	<g>
		<g>
			<rect y="0" class="st0" width="215.3" height="50"/>
		</g>
	</g>
	<g>
		<g>
			<path class="st1" d="M78.6,10.6H86v1.5h-5.6v4.6h5.2v1.5h-5.2v6.2h-1.8V10.6z"/>
			<path class="st1" d="M89.9,11.7c0,0.6-0.4,1.1-1.1,1.1c-0.7,0-1.1-0.5-1.1-1.1s0.4-1.1,1.1-1.1C89.5,10.6,89.9,11.1,89.9,11.7z
				 M87.9,24.4v-9.9h1.8v9.9H87.9z"/>
			<path class="st1" d="M99.6,22c0,0.9,0,1.7,0.1,2.4h-1.6L98,23.1H98c-0.5,0.8-1.6,1.5-3,1.5c-2,0-3-1.4-3-2.8
				c0-2.4,2.1-3.7,5.9-3.7v-0.2c0-0.8-0.2-2.3-2.2-2.3c-0.9,0-1.9,0.3-2.6,0.7l-0.4-1.2c0.8-0.5,2-0.9,3.3-0.9c3,0,3.8,2.1,3.8,4V22
				z M97.9,19.3c-2,0-4.2,0.3-4.2,2.2c0,1.2,0.8,1.7,1.7,1.7c1.3,0,2.1-0.8,2.4-1.7c0.1-0.2,0.1-0.4,0.1-0.6V19.3z"/>
			<path class="st1" d="M102.5,9.9h1.8v14.5h-1.8V9.9z"/>
			<path class="st1" d="M109.1,19L109.1,19c0.3-0.3,0.6-0.8,0.9-1.1l2.9-3.4h2.1l-3.8,4.1l4.3,5.8h-2.2l-3.4-4.7l-0.9,1v3.7h-1.8
				V9.9h1.8V19z"/>
			<path class="st1" d="M125,19.4c0,3.6-2.5,5.2-4.9,5.2c-2.6,0-4.7-2-4.7-5.1c0-3.3,2.2-5.2,4.9-5.2C123.1,14.3,125,16.4,125,19.4z
				 M117.2,19.5c0,2.2,1.2,3.8,3,3.8c1.7,0,3-1.6,3-3.8c0-1.7-0.8-3.8-3-3.8C118.1,15.7,117.2,17.6,117.2,19.5z"/>
			<path class="st1" d="M127.8,14.5l1.9,5.5c0.3,0.9,0.6,1.7,0.8,2.5h0.1c0.2-0.8,0.5-1.6,0.8-2.5l1.9-5.5h1.9l-3.9,9.9h-1.7
				l-3.7-9.9H127.8z"/>
			<path class="st1" d="M141.3,10.8c1.1-0.2,2.4-0.3,3.8-0.3c2.5,0,4.4,0.6,5.6,1.7c1.2,1.1,2,2.7,2,4.9c0,2.2-0.7,4.1-2,5.3
				c-1.3,1.3-3.4,2-6.1,2c-1.3,0-2.3-0.1-3.2-0.2V10.8z M143.1,23c0.4,0.1,1.1,0.1,1.8,0.1c3.8,0,5.8-2.1,5.8-5.8
				c0-3.2-1.8-5.3-5.6-5.3c-0.9,0-1.6,0.1-2.1,0.2V23z"/>
			<path class="st1" d="M156.8,11.7c0,0.6-0.4,1.1-1.1,1.1c-0.7,0-1.1-0.5-1.1-1.1s0.4-1.1,1.1-1.1
				C156.4,10.6,156.8,11.1,156.8,11.7z M154.8,24.4v-9.9h1.8v9.9H154.8z"/>
			<path class="st1" d="M168,22.9c0,2.3-0.5,3.6-1.4,4.5c-1,0.9-2.4,1.2-3.6,1.2c-1.2,0-2.5-0.3-3.3-0.8l0.4-1.4
				c0.7,0.4,1.7,0.8,2.9,0.8c1.8,0,3.2-1,3.2-3.5v-1.1h0c-0.5,0.9-1.6,1.7-3.1,1.7c-2.4,0-4.2-2.1-4.2-4.8c0-3.3,2.2-5.2,4.5-5.2
				c1.7,0,2.6,0.9,3.1,1.7h0l0.1-1.5h1.6c-0.1,0.7-0.1,1.5-0.1,2.7V22.9z M166.2,18.4c0-0.3,0-0.6-0.1-0.8c-0.3-1.1-1.2-1.9-2.5-1.9
				c-1.7,0-2.9,1.4-2.9,3.7c0,1.9,1,3.5,2.9,3.5c1.1,0,2.1-0.7,2.5-1.8c0.1-0.3,0.1-0.7,0.1-1V18.4z"/>
			<path class="st1" d="M172.9,11.7c0,0.6-0.4,1.1-1.1,1.1c-0.7,0-1.1-0.5-1.1-1.1s0.4-1.1,1.1-1.1
				C172.4,10.6,172.9,11.1,172.9,11.7z M170.9,24.4v-9.9h1.8v9.9H170.9z"/>
			<path class="st1" d="M177.8,12.1v2.4h2.6v1.4h-2.6v5.3c0,1.2,0.3,1.9,1.3,1.9c0.5,0,0.8,0,1-0.1l0.1,1.4
				c-0.3,0.1-0.9,0.2-1.6,0.2c-0.8,0-1.5-0.3-1.9-0.8c-0.5-0.6-0.7-1.4-0.7-2.6v-5.4h-1.5v-1.4h1.5v-1.8L177.8,12.1z"/>
			<path class="st1" d="M188.1,22c0,0.9,0,1.7,0.1,2.4h-1.6l-0.1-1.2h-0.1c-0.5,0.8-1.6,1.5-3,1.5c-2,0-3-1.4-3-2.8
				c0-2.4,2.1-3.7,5.9-3.7v-0.2c0-0.8-0.2-2.3-2.2-2.3c-0.9,0-1.9,0.3-2.6,0.7l-0.4-1.2c0.8-0.5,2-0.9,3.3-0.9c3,0,3.8,2.1,3.8,4V22
				z M186.3,19.3c-2,0-4.2,0.3-4.2,2.2c0,1.2,0.8,1.7,1.7,1.7c1.3,0,2.1-0.8,2.4-1.7c0.1-0.2,0.1-0.4,0.1-0.6V19.3z"/>
			<path class="st1" d="M190.6,9.9h1.8v14.5h-1.8V9.9z"/>
		</g>
		<g>
			<path class="st1" d="M78.2,34.5h2.5v0.3h-2.2v2h2v0.3h-2v2.5h-0.4V34.5z"/>
			<path class="st1" d="M86.5,38.7c0,0.3,0,0.6,0.1,0.9h-0.3l-0.1-0.5h0c-0.2,0.3-0.6,0.6-1.2,0.6c-0.7,0-1.1-0.5-1.1-1
				c0-0.8,0.7-1.4,2.2-1.3v-0.1c0-0.4-0.1-1.1-0.9-1.1c-0.3,0-0.7,0.1-0.9,0.3l-0.1-0.3c0.3-0.2,0.7-0.3,1.1-0.3
				c1.1,0,1.3,0.8,1.3,1.5V38.7z M86.2,37.6c-0.8,0-1.9,0.1-1.9,1c0,0.5,0.4,0.8,0.7,0.8c0.6,0,1-0.4,1.1-0.7c0-0.1,0-0.2,0-0.2
				V37.6z"/>
			<path class="st1" d="M93.2,39.4c-0.2,0.1-0.5,0.2-1.1,0.2c-1.1,0-1.8-0.8-1.8-1.9c0-1.2,0.8-2,1.9-2c0.5,0,0.8,0.1,1,0.2
				l-0.1,0.3c-0.2-0.1-0.5-0.2-0.9-0.2c-1,0-1.5,0.8-1.5,1.6c0,1,0.6,1.6,1.5,1.6c0.4,0,0.7-0.1,0.9-0.2L93.2,39.4z"/>
			<path class="st1" d="M97.1,37.7c0,1.2,0.6,1.6,1.4,1.6c0.5,0,0.8-0.1,1-0.2l0.1,0.3c-0.1,0.1-0.5,0.2-1.2,0.2
				c-1.1,0-1.7-0.8-1.7-1.9c0-1.2,0.7-2,1.7-2c1.2,0,1.4,1.1,1.4,1.7c0,0.1,0,0.2,0,0.2H97.1z M99.4,37.4c0-0.5-0.2-1.3-1.1-1.3
				c-0.8,0-1.2,0.7-1.2,1.3H99.4z"/>
			<path class="st1" d="M103.7,34.2h0.4v2.4h0c0.2-0.5,0.7-0.8,1.3-0.8c0.9,0,1.6,0.8,1.6,1.9c0,1.3-0.8,2-1.6,2
				c-0.6,0-1-0.2-1.3-0.7h0l0,0.7h-0.3c0-0.3,0-0.6,0-0.9V34.2z M104,38.2c0,0.1,0,0.2,0,0.3c0.2,0.6,0.6,0.9,1.2,0.9
				c0.8,0,1.3-0.7,1.3-1.6c0-0.8-0.5-1.6-1.3-1.6c-0.5,0-1,0.4-1.2,1c0,0.1,0,0.2,0,0.3V38.2z"/>
			<path class="st1" d="M114,37.7c0,1.4-0.9,2-1.8,2c-0.9,0-1.7-0.7-1.7-1.9c0-1.3,0.8-1.9,1.7-1.9C113.3,35.9,114,36.6,114,37.7z
				 M110.9,37.8c0,0.9,0.6,1.6,1.3,1.6c0.8,0,1.4-0.7,1.4-1.6c0-0.7-0.4-1.6-1.3-1.6C111.3,36.2,110.9,37,110.9,37.8z"/>
			<path class="st1" d="M121,37.7c0,1.4-0.9,2-1.8,2c-0.9,0-1.7-0.7-1.7-1.9c0-1.3,0.8-1.9,1.7-1.9C120.3,35.9,121,36.6,121,37.7z
				 M117.9,37.8c0,0.9,0.6,1.6,1.3,1.6c0.8,0,1.4-0.7,1.4-1.6c0-0.7-0.4-1.6-1.3-1.6C118.3,36.2,117.9,37,117.9,37.8z"/>
			<path class="st1" d="M125.2,37.7L125.2,37.7c0.1-0.1,0.3-0.3,0.4-0.4l1.3-1.4h0.4l-1.5,1.5l1.7,2.1h-0.4l-1.5-1.9l-0.4,0.4v1.5
				h-0.4v-5.4h0.4V37.7z"/>
			<path class="st1" d="M143.5,37.2c-0.1-0.8-0.1-1.7-0.1-2.3h0c-0.2,0.6-0.4,1.2-0.7,1.9l-1.1,2.8h-0.3l-1-2.7
				c-0.3-0.8-0.5-1.4-0.7-2h0c0,0.6,0,1.5-0.1,2.4l-0.2,2.4H139l0.4-5.2h0.4l1.1,3c0.2,0.7,0.4,1.2,0.6,1.7h0c0.1-0.5,0.3-1,0.6-1.7
				l1.1-3h0.4l0.4,5.2h-0.4L143.5,37.2z"/>
			<path class="st1" d="M150.3,38.7c0,0.3,0,0.6,0.1,0.9h-0.3l-0.1-0.5h0c-0.2,0.3-0.6,0.6-1.2,0.6c-0.7,0-1.1-0.5-1.1-1
				c0-0.8,0.7-1.4,2.2-1.3v-0.1c0-0.4-0.1-1.1-0.9-1.1c-0.3,0-0.7,0.1-0.9,0.3l-0.1-0.3c0.3-0.2,0.7-0.3,1.1-0.3
				c1.1,0,1.3,0.8,1.3,1.5V38.7z M150,37.6c-0.8,0-1.9,0.1-1.9,1c0,0.5,0.4,0.8,0.7,0.8c0.6,0,1-0.4,1.1-0.7c0-0.1,0-0.2,0-0.2V37.6
				z"/>
			<path class="st1" d="M154.5,37c0-0.4,0-0.7,0-1.1h0.3l0,0.7h0c0.2-0.5,0.5-0.8,1-0.8c0,0,0.1,0,0.1,0v0.4c-0.1,0-0.1,0-0.2,0
				c-0.5,0-0.9,0.4-1,1c0,0.1,0,0.2,0,0.4v2h-0.4V37z"/>
			<path class="st1" d="M160.1,37.7L160.1,37.7c0.1-0.1,0.3-0.3,0.4-0.4l1.3-1.4h0.4l-1.5,1.5l1.7,2.1H162l-1.5-1.9l-0.4,0.4v1.5
				h-0.4v-5.4h0.4V37.7z"/>
			<path class="st1" d="M166,37.7c0,1.2,0.6,1.6,1.4,1.6c0.5,0,0.8-0.1,1-0.2l0.1,0.3c-0.1,0.1-0.5,0.2-1.2,0.2
				c-1.1,0-1.7-0.8-1.7-1.9c0-1.2,0.7-2,1.7-2c1.2,0,1.4,1.1,1.4,1.7c0,0.1,0,0.2,0,0.2H166z M168.4,37.4c0-0.5-0.2-1.3-1.1-1.3
				c-0.8,0-1.2,0.7-1.2,1.3H168.4z"/>
			<path class="st1" d="M173.1,35.1v0.8h1v0.3h-1v2.4c0,0.5,0.1,0.8,0.5,0.8c0.2,0,0.3,0,0.4-0.1l0,0.3c-0.1,0.1-0.3,0.1-0.5,0.1
				c-0.3,0-0.5-0.1-0.6-0.3c-0.2-0.2-0.2-0.5-0.2-0.9v-2.3h-0.6v-0.3h0.6v-0.7L173.1,35.1z"/>
			<path class="st1" d="M178.4,34.9c0,0.2-0.1,0.3-0.3,0.3c-0.2,0-0.3-0.1-0.3-0.3c0-0.2,0.1-0.3,0.3-0.3
				C178.3,34.6,178.4,34.7,178.4,34.9z M177.9,39.6v-3.7h0.4v3.7H177.9z"/>
			<path class="st1" d="M182.5,36.8c0-0.3,0-0.6,0-0.9h0.3l0,0.7h0c0.2-0.4,0.7-0.7,1.3-0.7c0.4,0,1.3,0.2,1.3,1.5v2.2H185v-2.2
				c0-0.7-0.3-1.3-1-1.3c-0.5,0-1,0.4-1.1,0.8c0,0.1-0.1,0.2-0.1,0.3v2.3h-0.4V36.8z"/>
			<path class="st1" d="M192.4,39.1c0,0.9-0.2,1.4-0.5,1.7c-0.3,0.3-0.8,0.4-1.2,0.4c-0.4,0-0.9-0.1-1.2-0.3l0.1-0.3
				c0.3,0.2,0.6,0.3,1.1,0.3c0.8,0,1.3-0.4,1.3-1.5v-0.5h0c-0.2,0.4-0.6,0.7-1.3,0.7c-0.9,0-1.6-0.8-1.6-1.8c0-1.3,0.8-1.9,1.7-1.9
				c0.7,0,1.1,0.4,1.2,0.7h0l0-0.6h0.3c0,0.3,0,0.6,0,0.9V39.1z M192.1,37.3c0-0.1,0-0.2,0-0.4c-0.2-0.4-0.5-0.8-1.1-0.8
				c-0.8,0-1.3,0.6-1.3,1.6c0,0.8,0.4,1.5,1.3,1.5c0.5,0,0.9-0.3,1.1-0.8c0-0.1,0.1-0.3,0.1-0.4V37.3z"/>
		</g>
		<g>
			<g>
				<path class="st2" d="M22.5,10.2c0-0.8,0.6-1.4,1.4-1.4h18.7c0.8,0,1.4,0.6,1.4,1.4v4.2c0,0.8-0.6,1.4-1.4,1.4H32.2
					c-0.8,0-1.4,0.6-1.4,1.4v3.5c0,0.8,0.6,1.4,1.4,1.4h6.4c0.8,0,1.4,0.6,1.4,1.4v3.8c0,0.8-0.6,1.4-1.4,1.4h-6.4
					c-0.8,0-1.4,0.6-1.4,1.4v8.6c0,0.8-0.6,1.4-1.4,1.4h-5.6c-0.8,0-1.4-0.6-1.4-1.4V10.2z"/>
			</g>
			<g>
				<path class="st3" d="M46.4,10.2c0-0.8,0.6-1.4,1.4-1.4h7.4c0.8,0,2,0,2.8,0c0,0,15.7,0.4,15.7,15.3c0,12.2-8,15.7-17.1,15.7
					h-8.8c-0.8,0-1.4-0.6-1.4-1.4V10.2z M57.1,33.1c6.3,0,8.2-2.6,8.2-8.9c0-5.7-1.9-8.4-8.3-8.4h-0.8c-0.8,0-1.4,0.6-1.4,1.4v14.6
					c0,0.8,0.6,1.4,1.4,1.4H57.1z"/>
			</g>
			<g>
				<defs>
					<path id="SVGID_1_" d="M46.4,10.2c0-0.8,0.6-1.4,1.4-1.4h7.4c0.8,0,2,0,2.8,0c0,0,15.7,0.4,15.7,15.3c0,12.2-8,15.7-17.1,15.7
						h-8.8c-0.8,0-1.4-0.6-1.4-1.4V10.2z M57.1,33.1c6.3,0,8.2-2.6,8.2-8.9c0-5.7-1.9-8.4-8.3-8.4h-0.8c-0.8,0-1.4,0.6-1.4,1.4v14.6
						c0,0.8,0.6,1.4,1.4,1.4H57.1z"/>
				</defs>
				<clipPath id="SVGID_2_">
					<use xlink:href="#SVGID_1_"  style="overflow:visible;"/>
				</clipPath>
				<ellipse class="st4" cx="45.3" cy="0.1" rx="42.8" ry="24.5"/>
			</g>
			<g>
				<defs>
					<path id="SVGID_3_" d="M22.5,10.2c0-0.8,0.6-1.4,1.4-1.4h18.7c0.8,0,1.4,0.6,1.4,1.4v4.2c0,0.8-0.6,1.4-1.4,1.4H32.2
						c-0.8,0-1.4,0.6-1.4,1.4v3.5c0,0.8,0.6,1.4,1.4,1.4h6.4c0.8,0,1.4,0.6,1.4,1.4v3.8c0,0.8-0.6,1.4-1.4,1.4h-6.4
						c-0.8,0-1.4,0.6-1.4,1.4v8.6c0,0.8-0.6,1.4-1.4,1.4h-5.6c-0.8,0-1.4-0.6-1.4-1.4V10.2z"/>
				</defs>
				<clipPath id="SVGID_4_">
					<use xlink:href="#SVGID_3_"  style="overflow:visible;"/>
				</clipPath>
				<ellipse class="st5" cx="45.3" cy="0.1" rx="42.8" ry="24.5"/>
			</g>
		</g>
		<line class="st6" x1="78.2" y1="30.2" x2="192.9" y2="30.2"/>
	</g>
</g>
</svg>
