<svg version="1.1" id="Layer_1" xmlns="http://www.w3.org/2000/svg" xmlns:xlink="http://www.w3.org/1999/xlink" x="0px" y="0px"
	 viewBox="0 0 60.1 60" style="enable-background:new 0 0 60.1 60;" xml:space="preserve">
<style type="text/css">
	.st0{fill:#FFFFFF;}
</style>
<path class="st0" d="M38.4,58.6c-1.9,1.9-5.1,1.9-7.1,0L3.8,32.6c-1.5-1.5-3.4-4.1-3.6-6.2C-0.2,20.8,0,9.9,0.2,4.1
	c0-2.1,1.9-3.9,3.9-3.9c7.3-0.2,23.1-0.4,24.4,1.1l30.6,27.4c1.9,1.9,0.2,7-1.7,8.8L38.4,58.6z M14.3,8.4c-1.7-1.7-4.3-1.7-6,0
	c-1.7,1.7-1.7,4.3,0,6s4.3,1.7,6,0C15.8,12.7,15.8,10.1,14.3,8.4z"/>
</svg>
